<svg width="161" height="33" viewBox="0 0 161 33" fill="none" xmlns="http://www.w3.org/2000/svg">
<g clip-path="url(#clip0)">
<path d="M54.5966 25.9158H50.2621L47.5099 17.5532H39.013L36.0203 25.9158H34.4033L44.0353 0H45.5831L54.5966 25.9158ZM39.4594 16.2749H47.0626L43.4159 5.21756L39.4594 16.2749Z" fill="#5627E7"/>
<path d="M60.7551 25.9158H57.1083V0H60.7551V25.9158Z" fill="#5627E7"/>
<path d="M68.3921 25.9158H64.7453V0H68.3921V25.9158Z" fill="#5627E7"/>
<path d="M76.9572 26.365C74.4802 26.365 72.6573 25.9157 71.2807 25.1901V21.6306H71.4875C73.448 24.3263 75.1689 25.1901 77.164 25.1901C79.2284 25.1901 80.6386 24.2915 80.6386 22.3562C80.6386 20.5591 79.4689 19.7648 77.3699 18.6933L75.4431 17.6913C72.9315 16.3783 71.6588 14.8575 71.6588 12.5085C71.6588 8.81087 74.7553 7.01465 77.7826 7.01465C79.4679 7.01465 81.1196 7.29099 82.6674 7.87845V11.3684H82.4952C81.0504 9.12198 79.6738 8.18956 77.8163 8.18956C75.6144 8.18956 74.4793 9.36447 74.4793 10.9191C74.4793 12.4051 75.1671 13.1655 77.0592 14.1327L79.1236 15.2043C82.0133 16.6903 83.6303 18.072 83.6303 20.9059C83.6312 24.0847 80.982 26.365 76.9572 26.365Z" fill="#5627E7"/>
<path d="M90.0642 32.5507H86.4183V7.46393H89.8929V9.81376H89.9959C91.9572 7.91322 93.7455 7.01465 96.0504 7.01465C100.454 7.01465 103.206 10.263 103.206 15.9985C103.206 22.9098 98.9401 26.365 93.3329 26.365C92.2661 26.365 91.131 26.2268 90.0642 25.9853V32.5507ZM94.468 25.2249C97.5299 25.2249 99.422 22.8403 99.422 17.9338C99.422 11.9211 97.2894 9.60604 93.7455 9.60604C92.3353 9.60604 90.8212 10.0901 90.0642 10.5046V23.2895C91.4061 24.706 92.8856 25.2249 94.468 25.2249Z" fill="#5627E7"/>
<path d="M109.673 25.9157H105.992V7.46393H109.536V10.2283H109.673C110.706 8.32773 112.46 7.01465 114.455 7.01465V10.781H109.673V25.9157Z" fill="#5627E7"/>
<path d="M118.892 4.83765C117.688 4.83765 116.725 3.87045 116.725 2.66077C116.725 1.48586 117.688 0.483887 118.892 0.483887C120.062 0.483887 121.06 1.48586 121.06 2.66077C121.06 3.86953 120.062 4.83765 118.892 4.83765ZM120.75 25.9156H117.069V7.46381H120.75V25.9156Z" fill="#5627E7"/>
<path d="M128.284 7.46393V9.91715H128.387C130.039 8.12002 132.171 7.01465 134.545 7.01465C138.02 7.01465 140.256 8.84564 140.256 13.3037V25.9166H136.575V13.8216C136.575 11.1259 135.646 9.60604 132.653 9.60604C131.174 9.60604 129.764 9.95193 128.422 10.6428V25.9157H124.74V7.46393H128.284Z" fill="#5627E7"/>
<path d="M150.439 7.01465C153.191 7.01465 155.393 7.94799 156.7 9.46787H156.838C157.698 7.91322 159.005 7.01465 161 7.01465V9.88238H157.009C157.662 10.781 158.007 11.8863 158.007 13.096C158.007 16.7241 154.567 19.3155 150.438 19.3155C149.613 19.3155 148.821 19.2121 148.064 19.074C147.617 19.4537 147.342 20.0412 147.342 20.6634C147.342 21.8035 148.099 22.5639 149.922 22.5639H154.428C158.35 22.5639 160.139 24.0152 160.139 26.8491C160.139 30.4772 156.94 33 151.023 33C145.278 33 142.182 31.2028 142.182 28.853C142.182 27.6095 143.076 26.2955 146.654 25.6394V25.4664C145.244 24.879 144.589 23.7736 144.589 22.4258C144.589 20.9745 145.415 19.8344 147.204 18.9706V18.7976C144.555 17.899 142.938 15.8256 142.938 13.2342C142.94 9.57127 146.38 7.01465 150.439 7.01465ZM145.417 28.68C145.417 30.7188 147.24 31.8937 151.161 31.8937C155.634 31.8937 157.423 30.5458 157.457 28.4723C157.492 26.8481 156.528 25.9157 153.638 25.9157H149.132C148.616 25.9157 148.169 25.8809 147.755 25.8123C146.242 26.4345 145.417 27.4365 145.417 28.68ZM150.439 8.05139C148.202 8.05139 146.62 9.60604 146.62 13.2003C146.62 16.7946 148.202 18.2449 150.439 18.2449C152.744 18.2449 154.293 16.6555 154.293 13.096C154.293 9.50264 152.744 8.05139 150.439 8.05139Z" fill="#5627E7"/>
<path d="M0 0V12.4391C6.72503 12.1709 12.1173 6.75483 12.3842 0H0Z" fill="#5627E7"/>
<path d="M25.8013 0H13.418C13.6849 6.75483 19.0771 12.1709 25.8022 12.4391V0H25.8013Z" fill="#5627E7"/>
<path d="M0 13.4775V25.9166C6.72503 25.6485 12.1173 20.2324 12.3842 13.4775H0Z" fill="#5627E7"/>
<path d="M25.8013 13.4775H13.418C13.6849 20.2324 19.0771 25.6485 25.8022 25.9166V13.4775H25.8013Z" fill="#5627E7"/>
</g>
<defs>
<clipPath id="clip0">
<rect width="161" height="33" fill="white"/>
</clipPath>
</defs>
</svg>
